# xmcd
# Track frame offsets:
# 150
# 8886
# 20242
# 31441
# 45893
# 59547
# 74275
# 85504
# 96593
# 110171
# 122002
# 133416
#
# Disc length: 1981 seconds
# Revision: 1
# Processed by: cddbd v1.5.2PL0 Copyright (c) Steve Scherf et al.
# Submitted via: VisiTrax 2.11.2.271 - For more info visit www.synapsa.com
#
DISCID=a907bb0c
DTITLE=Slim Dusty - The Nature Of Man
DYEAR=1966
DGENRE=Australian Country
TTITLE0=Slim Dusty - High, Wide And Handsome
TTITLE1=Slim Dusty - When You're Short Of A Smoke
TTITLE2=Slim Dusty (With Joy McKean) - Keep The Lovelight Shining
TTITLE3=Slim Dusty - How Will I Go With Him Mate
TTITLE4=Slim Dusty - Love's Game Of Let's Pretend
TTITLE5=Slim Dusty - To A Mate
TTITLE6=Slim Dusty (With Joy Mckean) - I Love You Best Of All
TTITLE7=Slim Dusty - When You're Short Of A Quid
TTITLE8=Slim Dusty - Old Love Letters
TTITLE9=Slim Dusty - The Nature Of Man
TTITLE10=Slim Dusty (With Joy McKean) - Our Wedding Waltz
TTITLE11=Slim Dusty - I Must Have Good Terbaccy When I Smoke
EXTD=YEAR: 2005 EMI
EXTT0=
EXTT1=
EXTT2=
EXTT3=
EXTT4=
EXTT5=
EXTT6=
EXTT7=
EXTT8=
EXTT9=
EXTT10=
EXTT11=
PLAYORDER=
